<svg xmlns="http://www.w3.org/2000/svg" xmlns:xlink="http://www.w3.org/1999/xlink" width="150" zoomAndPan="magnify" viewBox="0 0 112.5 37.5" height="50" preserveAspectRatio="xMidYMid meet" version="1.0"><defs><g/><clipPath id="id1"><path d="M 68.957031 8.597656 L 92.003906 8.597656 L 92.003906 35.363281 L 68.957031 35.363281 Z M 68.957031 8.597656 " clip-rule="nonzero"/></clipPath></defs><g clip-path="url(#id1)"><path fill="#ff66c4" d="M 78.011719 32.011719 C 77.5625 32.011719 77.1875 32.394531 77.1875 32.847656 L 77.1875 35.359375 L 78.832031 35.359375 L 78.832031 32.847656 C 78.832031 32.394531 78.460938 32.011719 78.011719 32.011719 Z M 82.949219 32.011719 C 82.5 32.011719 82.125 32.390625 82.125 32.847656 C 82.125 33.308594 82.5 33.6875 82.949219 33.6875 C 83.398438 33.6875 83.773438 33.308594 83.773438 32.847656 C 83.773438 32.390625 83.402344 32.011719 82.949219 32.011719 Z M 77.394531 17.59375 L 77.816406 18.878906 C 77.878906 19.070312 78.144531 19.070312 78.207031 18.878906 L 78.628906 17.59375 L 79.894531 17.164062 C 80.082031 17.101562 80.082031 16.832031 79.894531 16.765625 L 78.628906 16.335938 L 78.207031 15.050781 C 78.144531 14.863281 77.878906 14.863281 77.816406 15.050781 L 77.394531 16.335938 L 76.128906 16.765625 C 75.941406 16.828125 75.941406 17.097656 76.128906 17.164062 Z M 86.246094 25.085938 C 84.59375 26.296875 82.59375 26.996094 80.480469 26.996094 C 78.363281 26.996094 76.363281 26.296875 74.710938 25.085938 C 71.351562 26.378906 68.957031 29.679688 68.957031 33.542969 C 68.957031 34.546875 69.753906 35.359375 70.738281 35.359375 L 75.539062 35.359375 L 75.539062 32.011719 C 75.539062 31.085938 76.273438 30.339844 77.1875 30.339844 L 83.773438 30.339844 C 84.683594 30.339844 85.417969 31.085938 85.417969 32.011719 L 85.417969 35.359375 L 90.21875 35.359375 C 91.203125 35.359375 92.003906 34.546875 92.003906 33.542969 C 92.003906 29.679688 89.609375 26.378906 86.246094 25.085938 Z M 72.25 20.308594 L 72.941406 20.308594 C 74.21875 23.261719 77.105469 25.324219 80.480469 25.324219 C 83.855469 25.324219 86.746094 23.261719 88.015625 20.308594 L 88.710938 20.308594 C 89.160156 20.308594 89.53125 19.929688 89.53125 19.472656 L 89.53125 14.457031 C 89.53125 14.003906 89.164062 13.621094 88.710938 13.621094 L 88.015625 13.621094 C 86.746094 10.667969 83.855469 8.605469 80.480469 8.605469 C 77.105469 8.605469 74.21875 10.667969 72.941406 13.621094 L 72.25 13.621094 C 71.796875 13.621094 71.425781 14.003906 71.425781 14.457031 L 71.425781 19.472656 C 71.425781 19.933594 71.796875 20.308594 72.25 20.308594 Z M 74.304688 15.710938 C 74.304688 14.554688 75.414062 13.621094 76.777344 13.621094 L 84.183594 13.621094 C 85.546875 13.621094 86.652344 14.554688 86.652344 15.710938 L 86.652344 16.964844 C 86.652344 19.734375 84.441406 21.980469 81.714844 21.980469 L 79.246094 21.980469 C 76.519531 21.980469 74.304688 19.734375 74.304688 16.964844 Z M 74.304688 15.710938 " fill-opacity="1" fill-rule="nonzero"/></g><g fill="#ffffff" fill-opacity="1"><g transform="translate(4.261866, 34.63283)"><g><path d="M 14.65625 -16.929688 L 11.824219 -16.929688 L 11.824219 -9.914062 L 4.789062 -9.914062 L 4.789062 -16.929688 L 1.957031 -16.929688 L 1.957031 0 L 4.789062 0 L 4.789062 -7.0625 L 11.824219 -7.0625 L 11.824219 0 L 14.65625 0 Z M 14.65625 -16.929688 "/></g></g></g><g fill="#ffffff" fill-opacity="1"><g transform="translate(20.850056, 34.63283)"><g><path d="M 15.984375 -16.929688 L 1.910156 -16.929688 L 1.910156 -6.796875 C 1.910156 -6.625 1.933594 -5.007812 2.757812 -3.363281 C 3.917969 -1.039062 6.117188 0.242188 8.949219 0.242188 C 11.777344 0.242188 13.976562 -1.039062 15.136719 -3.363281 C 15.960938 -5.007812 15.984375 -6.625 15.984375 -6.796875 Z M 12.574219 -4.546875 C 11.898438 -3.214844 10.714844 -2.585938 8.949219 -2.585938 C 7.207031 -2.585938 6.023438 -3.214844 5.320312 -4.546875 C 4.738281 -5.632812 4.714844 -6.796875 4.714844 -6.796875 L 4.714844 -14.097656 L 13.179688 -14.097656 L 13.179688 -6.820312 C 13.179688 -6.796875 13.15625 -5.632812 12.574219 -4.546875 Z M 12.574219 -4.546875 "/></g></g></g><g fill="#ffffff" fill-opacity="1"><g transform="translate(38.744023, 34.63283)"><g><path d="M 10.351562 -8.441406 C 11.800781 -8.800781 13.179688 -9.9375 13.179688 -12.164062 C 13.179688 -17.050781 7.546875 -16.929688 7.546875 -16.929688 L 1.910156 -16.929688 L 1.910156 0 L 7.546875 0 C 8.683594 0 13.421875 -0.21875 13.421875 -4.859375 C 13.421875 -4.859375 13.542969 -7.785156 10.351562 -8.441406 Z M 4.714844 -9.867188 L 4.714844 -14.121094 L 7.546875 -14.121094 C 7.546875 -14.121094 10.351562 -14.242188 10.351562 -11.96875 C 10.351562 -9.867188 7.546875 -9.867188 7.546875 -9.867188 Z M 7.546875 -2.804688 L 4.714844 -2.804688 L 4.714844 -7.039062 L 7.546875 -7.039062 C 7.546875 -7.039062 10.59375 -7.207031 10.59375 -4.933594 C 10.59375 -3.09375 8.730469 -2.804688 7.546875 -2.804688 Z M 7.546875 -2.804688 "/></g></g></g><g fill="#ffffff" fill-opacity="1"><g transform="translate(53.325177, 34.63283)"><g><path d="M 10.351562 -8.441406 C 11.800781 -8.800781 13.179688 -9.9375 13.179688 -12.164062 C 13.179688 -17.050781 7.546875 -16.929688 7.546875 -16.929688 L 1.910156 -16.929688 L 1.910156 0 L 7.546875 0 C 8.683594 0 13.421875 -0.21875 13.421875 -4.859375 C 13.421875 -4.859375 13.542969 -7.785156 10.351562 -8.441406 Z M 4.714844 -9.867188 L 4.714844 -14.121094 L 7.546875 -14.121094 C 7.546875 -14.121094 10.351562 -14.242188 10.351562 -11.96875 C 10.351562 -9.867188 7.546875 -9.867188 7.546875 -9.867188 Z M 7.546875 -2.804688 L 4.714844 -2.804688 L 4.714844 -7.039062 L 7.546875 -7.039062 C 7.546875 -7.039062 10.59375 -7.207031 10.59375 -4.933594 C 10.59375 -3.09375 8.730469 -2.804688 7.546875 -2.804688 Z M 7.546875 -2.804688 "/></g></g></g><g fill="#ffffff" fill-opacity="1"><g transform="translate(67.89743, 34.63283)"><g/></g></g><g fill="#ffffff" fill-opacity="1"><g transform="translate(76.239882, 34.63283)"><g/></g></g><g fill="#ffffff" fill-opacity="1"><g transform="translate(84.582333, 34.63283)"><g/></g></g><g fill="#ffffff" fill-opacity="1"><g transform="translate(92.899867, 34.63283)"><g><path d="M 4.738281 -14.097656 L 13.203125 -14.097656 L 13.203125 -16.929688 L 1.910156 -16.929688 L 1.910156 0 L 13.203125 0 L 13.203125 -2.828125 L 4.738281 -2.828125 L 4.738281 -7.0625 L 11.777344 -7.0625 L 11.777344 -9.867188 L 4.738281 -9.867188 Z M 4.738281 -14.097656 "/></g></g></g></svg>